<?xml version="1.0" encoding="UTF-8"?>
<svg width="24px" height="24px" viewBox="0 0 24 24" version="1.1" xmlns="http://www.w3.org/2000/svg" xmlns:xlink="http://www.w3.org/1999/xlink">
    <title>Google</title>
    <g id="Google" stroke="none" stroke-width="1" fill="none" fill-rule="evenodd">
        <path d="M21.35,11.1 C21.35,10.4 21.29,9.73 21.18,9.09 L12,9.09 L12,13.8 L17.38,13.8 C17.08,15.5 16.1,16.92 14.66,17.84 L14.66,20.5 L18.18,20.5 C20.28,18.58 21.35,15.6 21.35,11.1 L21.35,11.1 Z" id="Shape" fill="#4285F4"></path>
        <path d="M12,21.8 C15.16,21.8 17.8,20.69 19.58,18.77 L16.24,16.09 C15.24,16.81 13.9,17.3 12.4,17.3 C9.4,17.3 6.86,15.2 5.95,12.44 L2.34,12.44 L2.34,15.2 C4.08,18.61 7.78,21 12,21 L12,21.8 Z" id="Shape" fill="#34A853"></path>
        <path d="M5.3,12 C5.3,11.3 5.43,10.63 5.66,10 L2.34,6.8 C1.55,8.41 1.1,10.17 1.1,12 C1.1,13.83 1.55,15.59 2.34,17.2 L5.66,14 C5.43,13.37 5.3,12.7 5.3,12 L5.3,12 Z" id="Shape" fill="#FBBC05"></path>
        <path d="M12,6.7 C13.43,6.7 14.71,7.19 15.75,8.15 L19.69,4.2 C17.8,2.45 15.16,1.3 12,1.3 C7.78,1.3 4.08,3.69 2.34,7.1 L5.66,10.3 C6.56,7.5 9.1,5.5 12,5.5 L12,6.7 Z" id="Shape" fill="#EA4335"></path>
    </g>
</svg>
